<!-- Generated by IcoMoon.io -->
<svg version="1.1" xmlns="http://www.w3.org/2000/svg" width="1024" height="1024" viewBox="0 0 1024 1024">
<g id="icomoon-ignore">
</g>
<path fill="#000" d="M894.147 474.64c-20.672-211.449-209.12-365.918-420.515-344.689-210.606 21.15-364.378 208.747-343.782 419.412 20.595 210.659 207.788 364.912 418.508 344.899 211.498-20.118 366.461-208.173 345.789-419.622zM607.914 218.596c4.688-0.013 8.189 0.94 12.55 2.126l0.944 0.257c1.706 8.558-0.003 12.535-4.48 19.82-7.834 12.751-16.554 24.959-25.277 37.17-15.395 21.552-30.787 43.11-41.338 67.663-22.87 53.242-17.539 115.338-12.154 178.086 4.714 54.918 9.469 110.333-4.602 160.742-16.928 60.643-59.421 100.31-112.627 129.894-2.95 0.496-6.205 0.243-9.331 0.003-0.656-0.051-1.302-0.099-1.946-0.144-0.403-0.026-0.803-0.051-1.2-0.070l-0.512-0.973c-3.034-5.766-3.216-6.115-1.021-12.678 2.848-8.509 8.518-17.219 13.856-25.427 2.042-3.133 4.035-6.195 5.805-9.142 18.496-30.816 36.627-64.102 42.298-100.064 7.088-44.909 3.315-91.123-0.458-137.334-4.787-58.637-9.574-117.299 7.827-173.27 21.376-68.773 71.421-104.645 131.664-136.658z"></path>
</svg>
